<mxfile host="app.diagrams.net" agent="Mozilla/5.0 (Windows NT 10.0; Win64; x64) AppleWebKit/537.36 (KHTML, like Gecko) Chrome/130.0.0.0 Safari/537.36" version="24.8.3">
  <diagram name="Page-1" id="822b0af5-4adb-64df-f703-e8dfc1f81529">
    <mxGraphModel dx="4100" dy="4190" grid="1" gridSize="10" guides="1" tooltips="1" connect="1" arrows="1" fold="1" page="1" pageScale="1" pageWidth="1100" pageHeight="850" background="#ffffff" math="0" shadow="0">
      <root>
        <mxCell id="0" />
        <mxCell id="1" parent="0" />
        <mxCell id="PJSwy3xW-GLD1gI5wly7-16" value="" style="edgeStyle=orthogonalEdgeStyle;rounded=0;orthogonalLoop=1;jettySize=auto;html=1;" edge="1" parent="1" source="PJSwy3xW-GLD1gI5wly7-13">
          <mxGeometry relative="1" as="geometry">
            <mxPoint x="530" y="-2300" as="targetPoint" />
          </mxGeometry>
        </mxCell>
        <mxCell id="PJSwy3xW-GLD1gI5wly7-13" value="" style="image;aspect=fixed;perimeter=ellipsePerimeter;html=1;align=center;shadow=0;dashed=0;spacingTop=3;image=img/lib/active_directory/internet_globe.svg;" vertex="1" parent="1">
          <mxGeometry x="490" y="-2460" width="80" height="80" as="geometry" />
        </mxCell>
        <mxCell id="PJSwy3xW-GLD1gI5wly7-14" value="&lt;h2&gt;Internet&lt;/h2&gt;" style="text;html=1;align=center;verticalAlign=middle;resizable=0;points=[];autosize=1;strokeColor=none;fillColor=none;" vertex="1" parent="1">
          <mxGeometry x="485" y="-2497" width="90" height="60" as="geometry" />
        </mxCell>
        <mxCell id="PJSwy3xW-GLD1gI5wly7-20" style="edgeStyle=orthogonalEdgeStyle;rounded=0;orthogonalLoop=1;jettySize=auto;html=1;" edge="1" parent="1" source="PJSwy3xW-GLD1gI5wly7-15">
          <mxGeometry relative="1" as="geometry">
            <mxPoint x="530" y="-2160" as="targetPoint" />
          </mxGeometry>
        </mxCell>
        <mxCell id="PJSwy3xW-GLD1gI5wly7-15" value="" style="sketch=0;points=[[0.015,0.015,0],[0.985,0.015,0],[0.985,0.985,0],[0.015,0.985,0],[0.25,0,0],[0.5,0,0],[0.75,0,0],[1,0.25,0],[1,0.5,0],[1,0.75,0],[0.75,1,0],[0.5,1,0],[0.25,1,0],[0,0.75,0],[0,0.5,0],[0,0.25,0]];verticalLabelPosition=bottom;html=1;verticalAlign=top;aspect=fixed;align=center;pointerEvents=1;shape=mxgraph.cisco19.rect;prIcon=ips_ids;fillColor=#FAFAFA;strokeColor=#005073;" vertex="1" parent="1">
          <mxGeometry x="498" y="-2280" width="64" height="50" as="geometry" />
        </mxCell>
        <mxCell id="PJSwy3xW-GLD1gI5wly7-17" value="&lt;h2&gt;&lt;font style=&quot;font-size: 18px;&quot;&gt;IPS&lt;/font&gt;&lt;/h2&gt;" style="text;html=1;align=center;verticalAlign=middle;resizable=0;points=[];autosize=1;strokeColor=none;fillColor=none;" vertex="1" parent="1">
          <mxGeometry x="505" y="-2317" width="50" height="60" as="geometry" />
        </mxCell>
        <mxCell id="PJSwy3xW-GLD1gI5wly7-23" style="edgeStyle=orthogonalEdgeStyle;rounded=0;orthogonalLoop=1;jettySize=auto;html=1;" edge="1" parent="1" source="PJSwy3xW-GLD1gI5wly7-21">
          <mxGeometry relative="1" as="geometry">
            <mxPoint x="520" y="-1930" as="targetPoint" />
          </mxGeometry>
        </mxCell>
        <mxCell id="PJSwy3xW-GLD1gI5wly7-24" style="edgeStyle=orthogonalEdgeStyle;rounded=0;orthogonalLoop=1;jettySize=auto;html=1;" edge="1" parent="1" source="PJSwy3xW-GLD1gI5wly7-21">
          <mxGeometry relative="1" as="geometry">
            <mxPoint x="400" y="-2100" as="targetPoint" />
          </mxGeometry>
        </mxCell>
        <mxCell id="PJSwy3xW-GLD1gI5wly7-25" style="edgeStyle=orthogonalEdgeStyle;rounded=0;orthogonalLoop=1;jettySize=auto;html=1;" edge="1" parent="1" source="PJSwy3xW-GLD1gI5wly7-21">
          <mxGeometry relative="1" as="geometry">
            <mxPoint x="670" y="-2100" as="targetPoint" />
          </mxGeometry>
        </mxCell>
        <mxCell id="PJSwy3xW-GLD1gI5wly7-21" value="" style="image;html=1;image=img/lib/clip_art/networking/Firewall-page1_128x128.png" vertex="1" parent="1">
          <mxGeometry x="498" y="-2130" width="80" height="80" as="geometry" />
        </mxCell>
        <mxCell id="PJSwy3xW-GLD1gI5wly7-22" value="&lt;h2&gt;Firewall 1&lt;/h2&gt;" style="text;html=1;align=center;verticalAlign=middle;resizable=0;points=[];autosize=1;strokeColor=none;fillColor=none;" vertex="1" parent="1">
          <mxGeometry x="483" y="-2177" width="110" height="60" as="geometry" />
        </mxCell>
        <mxCell id="PJSwy3xW-GLD1gI5wly7-48" style="edgeStyle=orthogonalEdgeStyle;rounded=0;orthogonalLoop=1;jettySize=auto;html=1;" edge="1" parent="1" source="PJSwy3xW-GLD1gI5wly7-28" target="PJSwy3xW-GLD1gI5wly7-32">
          <mxGeometry relative="1" as="geometry" />
        </mxCell>
        <mxCell id="PJSwy3xW-GLD1gI5wly7-28" value="" style="image;html=1;image=img/lib/clip_art/networking/Router_Icon_128x128.png" vertex="1" parent="1">
          <mxGeometry x="250" y="-2220" width="80" height="80" as="geometry" />
        </mxCell>
        <mxCell id="PJSwy3xW-GLD1gI5wly7-29" value="&lt;h2&gt;Router 1&lt;/h2&gt;" style="text;html=1;align=center;verticalAlign=middle;resizable=0;points=[];autosize=1;strokeColor=none;fillColor=none;" vertex="1" parent="1">
          <mxGeometry x="240" y="-2250" width="100" height="60" as="geometry" />
        </mxCell>
        <mxCell id="PJSwy3xW-GLD1gI5wly7-34" style="edgeStyle=orthogonalEdgeStyle;rounded=0;orthogonalLoop=1;jettySize=auto;html=1;" edge="1" parent="1" source="PJSwy3xW-GLD1gI5wly7-31" target="PJSwy3xW-GLD1gI5wly7-37">
          <mxGeometry relative="1" as="geometry">
            <mxPoint x="120" y="-2000" as="targetPoint" />
          </mxGeometry>
        </mxCell>
        <mxCell id="PJSwy3xW-GLD1gI5wly7-49" style="edgeStyle=orthogonalEdgeStyle;rounded=0;orthogonalLoop=1;jettySize=auto;html=1;exitX=0;exitY=0.5;exitDx=0;exitDy=0;" edge="1" parent="1" source="PJSwy3xW-GLD1gI5wly7-31" target="PJSwy3xW-GLD1gI5wly7-38">
          <mxGeometry relative="1" as="geometry" />
        </mxCell>
        <mxCell id="PJSwy3xW-GLD1gI5wly7-50" style="edgeStyle=orthogonalEdgeStyle;rounded=0;orthogonalLoop=1;jettySize=auto;html=1;" edge="1" parent="1" source="PJSwy3xW-GLD1gI5wly7-31" target="PJSwy3xW-GLD1gI5wly7-40">
          <mxGeometry relative="1" as="geometry" />
        </mxCell>
        <mxCell id="PJSwy3xW-GLD1gI5wly7-31" value="" style="image;aspect=fixed;perimeter=ellipsePerimeter;html=1;align=center;shadow=0;dashed=0;spacingTop=3;image=img/lib/active_directory/switch.svg;" vertex="1" parent="1">
          <mxGeometry x="40" y="-2080" width="60" height="60" as="geometry" />
        </mxCell>
        <mxCell id="PJSwy3xW-GLD1gI5wly7-32" value="&lt;h2&gt;Switch 1&lt;/h2&gt;" style="text;html=1;align=center;verticalAlign=middle;resizable=0;points=[];autosize=1;strokeColor=none;fillColor=none;" vertex="1" parent="1">
          <mxGeometry x="20" y="-2125" width="100" height="60" as="geometry" />
        </mxCell>
        <mxCell id="PJSwy3xW-GLD1gI5wly7-36" value="" style="image;html=1;image=img/lib/clip_art/computers/Server_128x128.png" vertex="1" parent="1">
          <mxGeometry x="60" y="-1910" width="80" height="80" as="geometry" />
        </mxCell>
        <mxCell id="PJSwy3xW-GLD1gI5wly7-37" value="&lt;h2&gt;Email Server&lt;/h2&gt;" style="text;html=1;align=center;verticalAlign=middle;resizable=0;points=[];autosize=1;strokeColor=none;fillColor=none;" vertex="1" parent="1">
          <mxGeometry x="30" y="-1942" width="130" height="60" as="geometry" />
        </mxCell>
        <mxCell id="PJSwy3xW-GLD1gI5wly7-38" value="" style="verticalLabelPosition=bottom;sketch=0;aspect=fixed;html=1;verticalAlign=top;strokeColor=none;align=center;outlineConnect=0;shape=mxgraph.citrix.dhcp_server;" vertex="1" parent="1">
          <mxGeometry x="-190" y="-2095" width="76" height="90" as="geometry" />
        </mxCell>
        <mxCell id="PJSwy3xW-GLD1gI5wly7-40" value="" style="verticalLabelPosition=bottom;sketch=0;aspect=fixed;html=1;verticalAlign=top;strokeColor=none;align=center;outlineConnect=0;shape=mxgraph.citrix.proxy_server;" vertex="1" parent="1">
          <mxGeometry x="190" y="-2050" width="76.5" height="90" as="geometry" />
        </mxCell>
        <mxCell id="PJSwy3xW-GLD1gI5wly7-41" value="&lt;h2&gt;Proxy Server&lt;/h2&gt;" style="text;html=1;align=center;verticalAlign=middle;resizable=0;points=[];autosize=1;strokeColor=none;fillColor=none;" vertex="1" parent="1">
          <mxGeometry x="160" y="-2100" width="130" height="60" as="geometry" />
        </mxCell>
        <mxCell id="PJSwy3xW-GLD1gI5wly7-42" value="&lt;h2&gt;DHCP Server&lt;/h2&gt;" style="text;html=1;align=center;verticalAlign=middle;resizable=0;points=[];autosize=1;strokeColor=none;fillColor=none;" vertex="1" parent="1">
          <mxGeometry x="-130" y="-2095" width="140" height="60" as="geometry" />
        </mxCell>
        <mxCell id="PJSwy3xW-GLD1gI5wly7-63" value="" style="outlineConnect=0;gradientColor=none;html=1;whiteSpace=wrap;fontSize=12;fontStyle=0;strokeColor=default;fillColor=none;verticalAlign=top;align=center;fontColor=#FF9900;dashed=0;spacingTop=3;" vertex="1" parent="1">
          <mxGeometry x="-220" y="-2250" width="610" height="417.5" as="geometry" />
        </mxCell>
        <mxCell id="PJSwy3xW-GLD1gI5wly7-65" value="&lt;font style=&quot;font-size: 24px;&quot;&gt;DMZ&lt;/font&gt;" style="text;html=1;align=center;verticalAlign=middle;resizable=0;points=[];autosize=1;strokeColor=none;fillColor=none;" vertex="1" parent="1">
          <mxGeometry x="30" y="-2290" width="80" height="40" as="geometry" />
        </mxCell>
        <mxCell id="PJSwy3xW-GLD1gI5wly7-66" value="" style="sketch=0;points=[[0.015,0.015,0],[0.985,0.015,0],[0.985,0.985,0],[0.015,0.985,0],[0.25,0,0],[0.5,0,0],[0.75,0,0],[1,0.25,0],[1,0.5,0],[1,0.75,0],[0.75,1,0],[0.5,1,0],[0.25,1,0],[0,0.75,0],[0,0.5,0],[0,0.25,0]];verticalLabelPosition=bottom;html=1;verticalAlign=top;aspect=fixed;align=center;pointerEvents=1;shape=mxgraph.cisco19.rect;prIcon=ips_ids;fillColor=#FAFAFA;strokeColor=#005073;" vertex="1" parent="1">
          <mxGeometry x="454" y="-1902.5" width="152" height="118.75" as="geometry" />
        </mxCell>
        <mxCell id="PJSwy3xW-GLD1gI5wly7-67" value="&lt;h2&gt;IDS/SNORT&lt;/h2&gt;" style="text;html=1;align=center;verticalAlign=middle;resizable=0;points=[];autosize=1;strokeColor=none;fillColor=none;" vertex="1" parent="1">
          <mxGeometry x="470" y="-1950" width="120" height="60" as="geometry" />
        </mxCell>
        <mxCell id="PJSwy3xW-GLD1gI5wly7-68" value="&lt;h2&gt;Router 2&lt;/h2&gt;" style="text;html=1;align=center;verticalAlign=middle;resizable=0;points=[];autosize=1;strokeColor=none;fillColor=none;" vertex="1" parent="1">
          <mxGeometry x="670" y="-2140" width="100" height="60" as="geometry" />
        </mxCell>
        <mxCell id="PJSwy3xW-GLD1gI5wly7-70" style="edgeStyle=orthogonalEdgeStyle;rounded=0;orthogonalLoop=1;jettySize=auto;html=1;" edge="1" parent="1" source="PJSwy3xW-GLD1gI5wly7-69">
          <mxGeometry relative="1" as="geometry">
            <mxPoint x="1040" y="-1990" as="targetPoint" />
          </mxGeometry>
        </mxCell>
        <mxCell id="PJSwy3xW-GLD1gI5wly7-69" value="" style="outlineConnect=0;dashed=0;verticalLabelPosition=bottom;verticalAlign=top;align=center;html=1;shape=mxgraph.aws3.router;fillColor=#F58534;gradientColor=none;" vertex="1" parent="1">
          <mxGeometry x="685.5" y="-2086" width="69" height="72" as="geometry" />
        </mxCell>
        <mxCell id="PJSwy3xW-GLD1gI5wly7-73" style="edgeStyle=orthogonalEdgeStyle;rounded=0;orthogonalLoop=1;jettySize=auto;html=1;" edge="1" parent="1" source="PJSwy3xW-GLD1gI5wly7-71">
          <mxGeometry relative="1" as="geometry">
            <mxPoint x="880" y="-1680" as="targetPoint" />
          </mxGeometry>
        </mxCell>
        <mxCell id="PJSwy3xW-GLD1gI5wly7-74" style="edgeStyle=orthogonalEdgeStyle;rounded=0;orthogonalLoop=1;jettySize=auto;html=1;" edge="1" parent="1">
          <mxGeometry relative="1" as="geometry">
            <mxPoint x="1210" y="-1678" as="targetPoint" />
            <mxPoint x="1080.4999989600128" y="-1882" as="sourcePoint" />
          </mxGeometry>
        </mxCell>
        <mxCell id="PJSwy3xW-GLD1gI5wly7-75" style="edgeStyle=orthogonalEdgeStyle;rounded=0;orthogonalLoop=1;jettySize=auto;html=1;" edge="1" parent="1" source="PJSwy3xW-GLD1gI5wly7-71">
          <mxGeometry relative="1" as="geometry">
            <mxPoint x="1480" y="-1680" as="targetPoint" />
          </mxGeometry>
        </mxCell>
        <mxCell id="PJSwy3xW-GLD1gI5wly7-71" value="" style="image;aspect=fixed;perimeter=ellipsePerimeter;html=1;align=center;shadow=0;dashed=0;spacingTop=3;image=img/lib/active_directory/firewall.svg;" vertex="1" parent="1">
          <mxGeometry x="1000" y="-1950" width="80.5" height="131.97" as="geometry" />
        </mxCell>
        <mxCell id="PJSwy3xW-GLD1gI5wly7-72" value="&lt;h2&gt;Firewall 2&lt;/h2&gt;" style="text;html=1;align=center;verticalAlign=middle;resizable=0;points=[];autosize=1;strokeColor=none;fillColor=none;" vertex="1" parent="1">
          <mxGeometry x="985.25" y="-2005" width="110" height="60" as="geometry" />
        </mxCell>
        <mxCell id="PJSwy3xW-GLD1gI5wly7-76" value="&lt;h2&gt;Switch 2&lt;/h2&gt;" style="text;html=1;align=center;verticalAlign=middle;resizable=0;points=[];autosize=1;strokeColor=none;fillColor=none;" vertex="1" parent="1">
          <mxGeometry x="830" y="-1687" width="100" height="60" as="geometry" />
        </mxCell>
        <mxCell id="PJSwy3xW-GLD1gI5wly7-77" value="&lt;h2 style=&quot;forced-color-adjust: none; color: rgb(0, 0, 0); font-family: Helvetica; font-style: normal; font-variant-ligatures: normal; font-variant-caps: normal; letter-spacing: normal; orphans: 2; text-align: center; text-indent: 0px; text-transform: none; widows: 2; word-spacing: 0px; -webkit-text-stroke-width: 0px; white-space: nowrap; background-color: rgb(251, 251, 251); text-decoration-thickness: initial; text-decoration-style: initial; text-decoration-color: initial;&quot;&gt;Switch 3&lt;/h2&gt;" style="text;whiteSpace=wrap;html=1;" vertex="1" parent="1">
          <mxGeometry x="1170" y="-1692" width="110" height="70" as="geometry" />
        </mxCell>
        <mxCell id="PJSwy3xW-GLD1gI5wly7-78" value="&lt;h2 style=&quot;forced-color-adjust: none; color: rgb(0, 0, 0); font-family: Helvetica; font-style: normal; font-variant-ligatures: normal; font-variant-caps: normal; letter-spacing: normal; orphans: 2; text-align: center; text-indent: 0px; text-transform: none; widows: 2; word-spacing: 0px; -webkit-text-stroke-width: 0px; white-space: nowrap; background-color: rgb(251, 251, 251); text-decoration-thickness: initial; text-decoration-style: initial; text-decoration-color: initial;&quot;&gt;Switch 4&lt;/h2&gt;" style="text;whiteSpace=wrap;html=1;" vertex="1" parent="1">
          <mxGeometry x="1440" y="-1692" width="110" height="70" as="geometry" />
        </mxCell>
        <mxCell id="PJSwy3xW-GLD1gI5wly7-83" style="edgeStyle=orthogonalEdgeStyle;rounded=0;orthogonalLoop=1;jettySize=auto;html=1;" edge="1" parent="1" source="PJSwy3xW-GLD1gI5wly7-79">
          <mxGeometry relative="1" as="geometry">
            <mxPoint x="880" y="-1480" as="targetPoint" />
          </mxGeometry>
        </mxCell>
        <mxCell id="PJSwy3xW-GLD1gI5wly7-79" value="" style="image;html=1;image=img/lib/clip_art/networking/Switch_128x128.png" vertex="1" parent="1">
          <mxGeometry x="840" y="-1650" width="80" height="80" as="geometry" />
        </mxCell>
        <mxCell id="PJSwy3xW-GLD1gI5wly7-87" style="edgeStyle=orthogonalEdgeStyle;rounded=0;orthogonalLoop=1;jettySize=auto;html=1;" edge="1" parent="1" source="PJSwy3xW-GLD1gI5wly7-80">
          <mxGeometry relative="1" as="geometry">
            <mxPoint x="1210" y="-1480" as="targetPoint" />
          </mxGeometry>
        </mxCell>
        <mxCell id="PJSwy3xW-GLD1gI5wly7-80" value="" style="image;html=1;image=img/lib/clip_art/networking/Switch_128x128.png" vertex="1" parent="1">
          <mxGeometry x="1170" y="-1650" width="80" height="80" as="geometry" />
        </mxCell>
        <mxCell id="PJSwy3xW-GLD1gI5wly7-90" style="edgeStyle=orthogonalEdgeStyle;rounded=0;orthogonalLoop=1;jettySize=auto;html=1;" edge="1" parent="1" source="PJSwy3xW-GLD1gI5wly7-81">
          <mxGeometry relative="1" as="geometry">
            <mxPoint x="1480" y="-1480" as="targetPoint" />
          </mxGeometry>
        </mxCell>
        <mxCell id="PJSwy3xW-GLD1gI5wly7-81" value="" style="image;html=1;image=img/lib/clip_art/networking/Switch_128x128.png" vertex="1" parent="1">
          <mxGeometry x="1440" y="-1650" width="80" height="80" as="geometry" />
        </mxCell>
        <mxCell id="PJSwy3xW-GLD1gI5wly7-84" value="" style="fontColor=#0066CC;verticalAlign=top;verticalLabelPosition=bottom;labelPosition=center;align=center;html=1;outlineConnect=0;fillColor=#CCCCCC;strokeColor=#6881B3;gradientColor=none;gradientDirection=north;strokeWidth=2;shape=mxgraph.networks.user_female;" vertex="1" parent="1">
          <mxGeometry x="830" y="-1430" width="40" height="70" as="geometry" />
        </mxCell>
        <mxCell id="PJSwy3xW-GLD1gI5wly7-85" value="" style="fontColor=#0066CC;verticalAlign=top;verticalLabelPosition=bottom;labelPosition=center;align=center;html=1;outlineConnect=0;fillColor=#CCCCCC;strokeColor=#6881B3;gradientColor=none;gradientDirection=north;strokeWidth=2;shape=mxgraph.networks.user_male;" vertex="1" parent="1">
          <mxGeometry x="890" y="-1430" width="40" height="70" as="geometry" />
        </mxCell>
        <mxCell id="PJSwy3xW-GLD1gI5wly7-86" value="&lt;h2&gt;HR Department&lt;/h2&gt;" style="text;html=1;align=center;verticalAlign=middle;resizable=0;points=[];autosize=1;strokeColor=none;fillColor=none;" vertex="1" parent="1">
          <mxGeometry x="805" y="-1490" width="150" height="60" as="geometry" />
        </mxCell>
        <mxCell id="PJSwy3xW-GLD1gI5wly7-88" value="" style="fontColor=#0066CC;verticalAlign=top;verticalLabelPosition=bottom;labelPosition=center;align=center;html=1;outlineConnect=0;fillColor=#CCCCCC;strokeColor=#6881B3;gradientColor=none;gradientDirection=north;strokeWidth=2;shape=mxgraph.networks.pc;" vertex="1" parent="1">
          <mxGeometry x="1160" y="-1430" width="100" height="70" as="geometry" />
        </mxCell>
        <mxCell id="PJSwy3xW-GLD1gI5wly7-89" value="&lt;h2&gt;IT Department&lt;/h2&gt;" style="text;html=1;align=center;verticalAlign=middle;resizable=0;points=[];autosize=1;strokeColor=none;fillColor=none;" vertex="1" parent="1">
          <mxGeometry x="1140" y="-1487" width="140" height="60" as="geometry" />
        </mxCell>
        <mxCell id="PJSwy3xW-GLD1gI5wly7-91" value="" style="image;points=[];aspect=fixed;html=1;align=center;shadow=0;dashed=0;image=img/lib/allied_telesis/computer_and_terminals/Personal_Computer_Wireless.svg;" vertex="1" parent="1">
          <mxGeometry x="1440" y="-1440" width="88.32" height="90" as="geometry" />
        </mxCell>
        <mxCell id="PJSwy3xW-GLD1gI5wly7-92" value="&lt;h2&gt;Customer Services Department&lt;/h2&gt;" style="text;html=1;align=center;verticalAlign=middle;resizable=0;points=[];autosize=1;strokeColor=none;fillColor=none;" vertex="1" parent="1">
          <mxGeometry x="1335" y="-1487" width="290" height="60" as="geometry" />
        </mxCell>
        <mxCell id="PJSwy3xW-GLD1gI5wly7-93" value="" style="outlineConnect=0;gradientColor=none;html=1;whiteSpace=wrap;fontSize=12;fontStyle=0;strokeColor=default;fillColor=none;verticalAlign=top;align=center;fontColor=#FF9900;dashed=0;spacingTop=3;shape=image;labelBackgroundColor=default;verticalLabelPosition=bottom;points=[];aspect=fixed;shadow=0;image=img/lib/allied_telesis/computer_and_terminals/Personal_Computer_with_Server.svg;" vertex="1" parent="1">
          <mxGeometry x="170" y="-1650" width="490" height="335.37" as="geometry" />
        </mxCell>
        <mxCell id="PJSwy3xW-GLD1gI5wly7-94" value="" style="outlineConnect=0;gradientColor=none;html=1;whiteSpace=wrap;fontSize=12;fontStyle=0;strokeColor=default;fillColor=none;verticalAlign=top;align=center;fontColor=#FF9900;dashed=0;spacingTop=3;" vertex="1" parent="1">
          <mxGeometry x="180" y="-1680" width="470" height="380" as="geometry" />
        </mxCell>
        <mxCell id="PJSwy3xW-GLD1gI5wly7-95" value="&lt;h1&gt;Air Gapped&amp;nbsp; For IT Department&lt;/h1&gt;" style="text;html=1;align=center;verticalAlign=middle;resizable=0;points=[];autosize=1;strokeColor=none;fillColor=none;" vertex="1" parent="1">
          <mxGeometry x="220" y="-1740" width="370" height="70" as="geometry" />
        </mxCell>
      </root>
    </mxGraphModel>
  </diagram>
</mxfile>
